<svg xmlns="http://www.w3.org/2000/svg" xmlns:xlink="http://www.w3.org/1999/xlink" width="1366" zoomAndPan="magnify" viewBox="0 0 1024.5 576" height="768" preserveAspectRatio="xMidYMid meet" version="1.0"><defs><clipPath id="558da19559"><path d="M 344.109375 120.109375 L 679.945312 120.109375 L 679.945312 455.945312 L 344.109375 455.945312 Z M 344.109375 120.109375 " clip-rule="nonzero"/></clipPath></defs><g clip-path="url(#558da19559)"><path fill="#f5a623" d="M 679.859375 287.976562 C 679.859375 290.722656 679.789062 293.46875 679.65625 296.214844 C 679.519531 298.957031 679.320312 301.695312 679.050781 304.429688 C 678.78125 307.164062 678.445312 309.890625 678.039062 312.609375 C 677.636719 315.328125 677.167969 318.03125 676.632812 320.726562 C 676.097656 323.421875 675.496094 326.101562 674.828125 328.765625 C 674.160156 331.433594 673.425781 334.078125 672.628906 336.710938 C 671.832031 339.339844 670.96875 341.945312 670.042969 344.535156 C 669.117188 347.121094 668.128906 349.683594 667.078125 352.222656 C 666.027344 354.757812 664.914062 357.269531 663.738281 359.753906 C 662.566406 362.238281 661.328125 364.691406 660.035156 367.113281 C 658.738281 369.539062 657.386719 371.925781 655.972656 374.285156 C 654.558594 376.640625 653.089844 378.960938 651.566406 381.246094 C 650.039062 383.53125 648.457031 385.777344 646.820312 387.984375 C 645.183594 390.191406 643.492188 392.355469 641.75 394.480469 C 640.007812 396.601562 638.214844 398.683594 636.367188 400.71875 C 634.523438 402.753906 632.628906 404.742188 630.6875 406.6875 C 628.742188 408.628906 626.753906 410.523438 624.71875 412.367188 C 622.683594 414.214844 620.601562 416.007812 618.480469 417.75 C 616.355469 419.492188 614.191406 421.183594 611.984375 422.820312 C 609.777344 424.457031 607.53125 426.039062 605.246094 427.566406 C 602.960938 429.089844 600.640625 430.558594 598.285156 431.972656 C 595.925781 433.386719 593.539062 434.738281 591.113281 436.035156 C 588.691406 437.328125 586.238281 438.566406 583.753906 439.738281 C 581.269531 440.914062 578.757812 442.027344 576.222656 443.078125 C 573.683594 444.128906 571.121094 445.117188 568.535156 446.042969 C 565.945312 446.96875 563.339844 447.832031 560.710938 448.628906 C 558.078125 449.425781 555.433594 450.160156 552.765625 450.828125 C 550.101562 451.496094 547.421875 452.097656 544.726562 452.632812 C 542.03125 453.167969 539.328125 453.636719 536.609375 454.039062 C 533.890625 454.445312 531.164062 454.78125 528.429688 455.050781 C 525.695312 455.320312 522.957031 455.519531 520.214844 455.65625 C 517.46875 455.789062 514.722656 455.859375 511.976562 455.859375 C 509.226562 455.859375 506.480469 455.789062 503.738281 455.65625 C 500.992188 455.519531 498.253906 455.320312 495.519531 455.050781 C 492.785156 454.78125 490.058594 454.445312 487.34375 454.039062 C 484.625 453.636719 481.917969 453.167969 479.222656 452.632812 C 476.527344 452.097656 473.847656 451.496094 471.183594 450.828125 C 468.519531 450.160156 465.871094 449.425781 463.242188 448.628906 C 460.613281 447.832031 458.003906 446.96875 455.417969 446.042969 C 452.832031 445.117188 450.269531 444.128906 447.730469 443.078125 C 445.191406 442.027344 442.679688 440.914062 440.195312 439.738281 C 437.710938 438.566406 435.257812 437.328125 432.835938 436.035156 C 430.414062 434.738281 428.023438 433.386719 425.667969 431.972656 C 423.308594 430.558594 420.988281 429.089844 418.703125 427.566406 C 416.421875 426.039062 414.175781 424.457031 411.96875 422.820312 C 409.761719 421.183594 407.597656 419.492188 405.472656 417.75 C 403.347656 416.007812 401.269531 414.214844 399.234375 412.367188 C 397.195312 410.523438 395.207031 408.628906 393.265625 406.6875 C 391.320312 404.742188 389.429688 402.753906 387.582031 400.71875 C 385.738281 398.683594 383.945312 396.601562 382.199219 394.480469 C 380.457031 392.355469 378.769531 390.191406 377.132812 387.984375 C 375.496094 385.777344 373.914062 383.53125 372.386719 381.246094 C 370.859375 378.960938 369.390625 376.640625 367.976562 374.285156 C 366.566406 371.925781 365.210938 369.539062 363.917969 367.113281 C 362.621094 364.691406 361.386719 362.238281 360.210938 359.753906 C 359.035156 357.269531 357.921875 354.757812 356.871094 352.222656 C 355.820312 349.683594 354.832031 347.121094 353.90625 344.535156 C 352.980469 341.945312 352.121094 339.339844 351.320312 336.710938 C 350.523438 334.078125 349.792969 331.433594 349.125 328.765625 C 348.457031 326.101562 347.855469 323.421875 347.320312 320.726562 C 346.78125 318.03125 346.3125 315.328125 345.910156 312.609375 C 345.507812 309.890625 345.171875 307.164062 344.902344 304.429688 C 344.632812 301.695312 344.429688 298.957031 344.296875 296.214844 C 344.160156 293.46875 344.09375 290.722656 344.09375 287.976562 C 344.09375 285.226562 344.160156 282.480469 344.296875 279.738281 C 344.429688 276.992188 344.632812 274.253906 344.902344 271.519531 C 345.171875 268.785156 345.507812 266.058594 345.910156 263.34375 C 346.3125 260.625 346.78125 257.917969 347.320312 255.222656 C 347.855469 252.527344 348.457031 249.847656 349.125 247.183594 C 349.792969 244.519531 350.523438 241.871094 351.320312 239.242188 C 352.121094 236.613281 352.980469 234.003906 353.90625 231.417969 C 354.832031 228.832031 355.820312 226.269531 356.871094 223.730469 C 357.921875 221.191406 359.035156 218.679688 360.210938 216.195312 C 361.386719 213.710938 362.621094 211.257812 363.917969 208.835938 C 365.210938 206.414062 366.566406 204.023438 367.976562 201.667969 C 369.390625 199.308594 370.859375 196.988281 372.386719 194.703125 C 373.914062 192.421875 375.496094 190.175781 377.132812 187.96875 C 378.769531 185.761719 380.457031 183.59375 382.199219 181.472656 C 383.945312 179.347656 385.738281 177.269531 387.582031 175.230469 C 389.429688 173.195312 391.320312 171.207031 393.265625 169.265625 C 395.207031 167.320312 397.195312 165.429688 399.234375 163.582031 C 401.269531 161.738281 403.347656 159.945312 405.472656 158.199219 C 407.597656 156.457031 409.761719 154.765625 411.96875 153.132812 C 414.175781 151.496094 416.421875 149.914062 418.703125 148.386719 C 420.988281 146.859375 423.308594 145.390625 425.667969 143.976562 C 428.023438 142.566406 430.414062 141.210938 432.835938 139.917969 C 435.257812 138.621094 437.710938 137.386719 440.195312 136.210938 C 442.679688 135.035156 445.191406 133.921875 447.730469 132.871094 C 450.269531 131.820312 452.832031 130.832031 455.417969 129.90625 C 458.003906 128.980469 460.613281 128.121094 463.242188 127.320312 C 465.871094 126.523438 468.519531 125.792969 471.183594 125.125 C 473.847656 124.457031 476.527344 123.855469 479.222656 123.320312 C 481.917969 122.78125 484.625 122.3125 487.34375 121.910156 C 490.058594 121.507812 492.785156 121.171875 495.519531 120.902344 C 498.253906 120.632812 500.992188 120.429688 503.738281 120.296875 C 506.480469 120.160156 509.226562 120.09375 511.976562 120.09375 C 514.722656 120.09375 517.46875 120.160156 520.214844 120.296875 C 522.957031 120.429688 525.695312 120.632812 528.429688 120.902344 C 531.164062 121.171875 533.890625 121.507812 536.609375 121.910156 C 539.328125 122.3125 542.03125 122.78125 544.726562 123.320312 C 547.421875 123.855469 550.101562 124.457031 552.765625 125.125 C 555.433594 125.792969 558.078125 126.523438 560.710938 127.320312 C 563.339844 128.121094 565.945312 128.980469 568.535156 129.90625 C 571.121094 130.832031 573.683594 131.820312 576.222656 132.871094 C 578.757812 133.921875 581.269531 135.035156 583.753906 136.210938 C 586.238281 137.386719 588.691406 138.621094 591.113281 139.917969 C 593.539062 141.210938 595.925781 142.566406 598.285156 143.976562 C 600.640625 145.390625 602.960938 146.859375 605.246094 148.386719 C 607.53125 149.914062 609.777344 151.496094 611.984375 153.132812 C 614.191406 154.765625 616.355469 156.457031 618.480469 158.199219 C 620.601562 159.945312 622.683594 161.738281 624.71875 163.582031 C 626.753906 165.429688 628.742188 167.320312 630.6875 169.265625 C 632.628906 171.207031 634.523438 173.195312 636.367188 175.230469 C 638.214844 177.269531 640.007812 179.347656 641.75 181.472656 C 643.492188 183.59375 645.183594 185.761719 646.820312 187.96875 C 648.457031 190.175781 650.039062 192.421875 651.566406 194.703125 C 653.089844 196.988281 654.558594 199.308594 655.972656 201.667969 C 657.386719 204.023438 658.738281 206.414062 660.035156 208.835938 C 661.328125 211.257812 662.566406 213.710938 663.738281 216.195312 C 664.914062 218.679688 666.027344 221.191406 667.078125 223.730469 C 668.128906 226.269531 669.117188 228.832031 670.042969 231.417969 C 670.96875 234.003906 671.832031 236.613281 672.628906 239.242188 C 673.425781 241.871094 674.160156 244.519531 674.828125 247.183594 C 675.496094 249.847656 676.097656 252.527344 676.632812 255.222656 C 677.167969 257.917969 677.636719 260.625 678.039062 263.34375 C 678.445312 266.058594 678.78125 268.785156 679.050781 271.519531 C 679.320312 274.253906 679.519531 276.992188 679.65625 279.738281 C 679.789062 282.480469 679.859375 285.226562 679.859375 287.976562 Z M 679.859375 287.976562 " fill-opacity="1" fill-rule="nonzero"/></g><path fill="#ffffff" d="M 511.976562 167.742188 L 511.972656 167.742188 C 495.125 167.742188 481.8125 182.039062 483.011719 198.847656 L 492.355469 329.566406 C 493.089844 339.859375 501.65625 347.835938 511.972656 347.835938 L 511.976562 347.835938 C 522.296875 347.835938 530.859375 339.859375 531.597656 329.566406 L 540.9375 198.847656 C 542.140625 182.039062 528.828125 167.742188 511.976562 167.742188 Z M 511.976562 167.742188 " fill-opacity="1" fill-rule="nonzero"/><path fill="#ffffff" d="M 535.433594 387.121094 C 535.433594 387.890625 535.394531 388.65625 535.320312 389.421875 C 535.246094 390.1875 535.132812 390.945312 534.980469 391.699219 C 534.832031 392.453125 534.644531 393.195312 534.421875 393.933594 C 534.199219 394.667969 533.941406 395.390625 533.648438 396.097656 C 533.351562 396.808594 533.023438 397.503906 532.664062 398.179688 C 532.300781 398.859375 531.90625 399.515625 531.480469 400.15625 C 531.050781 400.792969 530.59375 401.410156 530.109375 402.003906 C 529.621094 402.597656 529.105469 403.167969 528.5625 403.710938 C 528.019531 404.253906 527.449219 404.769531 526.855469 405.253906 C 526.261719 405.742188 525.644531 406.199219 525.007812 406.625 C 524.367188 407.054688 523.710938 407.449219 523.03125 407.808594 C 522.355469 408.171875 521.660156 408.5 520.953125 408.792969 C 520.242188 409.089844 519.519531 409.347656 518.785156 409.570312 C 518.050781 409.792969 517.304688 409.980469 516.550781 410.128906 C 515.796875 410.277344 515.039062 410.390625 514.273438 410.46875 C 513.511719 410.542969 512.742188 410.578125 511.976562 410.578125 C 511.207031 410.578125 510.441406 410.542969 509.675781 410.46875 C 508.910156 410.390625 508.152344 410.277344 507.398438 410.128906 C 506.644531 409.980469 505.902344 409.792969 505.167969 409.570312 C 504.429688 409.347656 503.707031 409.089844 503 408.792969 C 502.289062 408.5 501.59375 408.171875 500.917969 407.808594 C 500.242188 407.449219 499.582031 407.054688 498.941406 406.625 C 498.304688 406.199219 497.6875 405.742188 497.09375 405.253906 C 496.5 404.769531 495.933594 404.253906 495.390625 403.710938 C 494.84375 403.167969 494.332031 402.597656 493.84375 402.003906 C 493.355469 401.410156 492.898438 400.792969 492.472656 400.15625 C 492.042969 399.515625 491.648438 398.859375 491.289062 398.179688 C 490.925781 397.503906 490.597656 396.808594 490.304688 396.097656 C 490.011719 395.390625 489.75 394.667969 489.527344 393.933594 C 489.304688 393.195312 489.117188 392.453125 488.96875 391.699219 C 488.820312 390.945312 488.707031 390.1875 488.632812 389.421875 C 488.554688 388.65625 488.519531 387.890625 488.519531 387.121094 C 488.519531 386.355469 488.554688 385.589844 488.632812 384.824219 C 488.707031 384.058594 488.820312 383.300781 488.96875 382.546875 C 489.117188 381.792969 489.304688 381.046875 489.527344 380.3125 C 489.75 379.578125 490.011719 378.855469 490.304688 378.144531 C 490.597656 377.4375 490.925781 376.742188 491.289062 376.066406 C 491.648438 375.386719 492.042969 374.730469 492.472656 374.089844 C 492.898438 373.453125 493.355469 372.835938 493.84375 372.242188 C 494.332031 371.648438 494.84375 371.078125 495.390625 370.535156 C 495.933594 369.992188 496.5 369.476562 497.09375 368.988281 C 497.6875 368.503906 498.304688 368.046875 498.941406 367.617188 C 499.582031 367.191406 500.242188 366.796875 500.917969 366.433594 C 501.59375 366.074219 502.289062 365.746094 503 365.449219 C 503.707031 365.15625 504.429688 364.898438 505.167969 364.675781 C 505.902344 364.453125 506.644531 364.265625 507.398438 364.117188 C 508.152344 363.964844 508.910156 363.855469 509.675781 363.777344 C 510.441406 363.703125 511.207031 363.664062 511.976562 363.664062 C 512.742188 363.664062 513.511719 363.703125 514.273438 363.777344 C 515.039062 363.855469 515.796875 363.964844 516.550781 364.117188 C 517.304688 364.265625 518.050781 364.453125 518.785156 364.675781 C 519.519531 364.898438 520.242188 365.15625 520.953125 365.449219 C 521.660156 365.746094 522.355469 366.074219 523.03125 366.433594 C 523.710938 366.796875 524.367188 367.191406 525.007812 367.617188 C 525.644531 368.046875 526.261719 368.503906 526.855469 368.988281 C 527.449219 369.476562 528.019531 369.992188 528.5625 370.535156 C 529.105469 371.078125 529.621094 371.648438 530.109375 372.242188 C 530.59375 372.835938 531.050781 373.453125 531.480469 374.089844 C 531.90625 374.730469 532.300781 375.386719 532.664062 376.066406 C 533.023438 376.742188 533.351562 377.4375 533.648438 378.144531 C 533.941406 378.855469 534.199219 379.578125 534.421875 380.3125 C 534.644531 381.046875 534.832031 381.792969 534.980469 382.546875 C 535.132812 383.300781 535.246094 384.058594 535.320312 384.824219 C 535.394531 385.589844 535.433594 386.355469 535.433594 387.121094 Z M 535.433594 387.121094 " fill-opacity="1" fill-rule="nonzero"/></svg>