<svg xmlns="http://www.w3.org/2000/svg" xmlns:xlink="http://www.w3.org/1999/xlink" width="1366" zoomAndPan="magnify" viewBox="0 0 1024.5 576" height="768" preserveAspectRatio="xMidYMid meet" version="1.0"><defs><clipPath id="bf03b7e8e5"><path d="M 192 244.515625 L 760 244.515625 L 760 410 L 192 410 Z M 192 244.515625 " clip-rule="nonzero"/></clipPath><clipPath id="b1579339f7"><path d="M 326 380 L 373 380 L 373 426.679688 L 326 426.679688 Z M 326 380 " clip-rule="nonzero"/></clipPath><clipPath id="2617807b09"><path d="M 599 380 L 646 380 L 646 426.679688 L 599 426.679688 Z M 599 380 " clip-rule="nonzero"/></clipPath></defs><g clip-path="url(#bf03b7e8e5)"><path fill="#f5a623" d="M 235.035156 289.945312 C 235.0625 289.84375 235.042969 289.746094 234.980469 289.660156 C 234.917969 289.574219 234.832031 289.53125 234.726562 289.53125 C 221.304688 289.367188 213.339844 289.316406 210.828125 289.382812 C 209.070312 289.425781 207.554688 289.707031 206.285156 290.21875 C 205.988281 290.339844 205.824219 290.558594 205.792969 290.878906 C 205.761719 291.195312 205.878906 291.445312 206.140625 291.621094 C 206.535156 291.890625 206.859375 292.285156 207.117188 292.816406 C 207.230469 293.054688 207.257812 293.308594 207.199219 293.570312 C 206.949219 294.722656 206.6875 295.648438 206.421875 296.347656 C 204.328125 301.914062 201.964844 309.089844 199.335938 317.875 C 199.023438 318.914062 198.152344 319.507812 196.722656 319.648438 C 191.199219 320.199219 191.898438 314.347656 192.480469 310.273438 C 193.355469 304.183594 194.300781 299.121094 195.3125 295.078125 C 197.222656 287.457031 202.738281 284.574219 210.210938 283.386719 C 218.648438 282.050781 227.425781 281.324219 236.539062 281.207031 C 236.828125 281.203125 237.085938 281.109375 237.3125 280.929688 C 237.539062 280.746094 237.683594 280.515625 237.753906 280.234375 C 238.195312 278.320312 238.855469 275.867188 239.738281 272.867188 C 242.425781 263.664062 250.394531 259.039062 259.761719 259.015625 C 302.539062 258.90625 341.453125 258.890625 376.503906 258.972656 C 376.671875 258.96875 376.820312 258.917969 376.949219 258.816406 C 377.082031 258.714844 377.167969 258.582031 377.207031 258.417969 C 378.625 252.570312 382.242188 247.898438 387.703125 245.722656 C 389.558594 244.984375 392.984375 244.605469 397.992188 244.59375 C 427.496094 244.53125 467.835938 244.507812 519.015625 244.523438 C 528.269531 244.523438 534.789062 249.808594 536.789062 258.433594 C 536.824219 258.597656 536.910156 258.726562 537.042969 258.832031 C 537.171875 258.933594 537.324219 258.984375 537.492188 258.984375 C 649.988281 259 719.445312 258.984375 745.855469 258.941406 C 748.910156 258.9375 751.140625 259.292969 752.542969 260.011719 C 755.566406 261.566406 757.074219 264.46875 757.066406 268.722656 C 757.050781 276.203125 757.035156 308.261719 757.019531 364.898438 C 757.019531 368.152344 757.113281 371.148438 757.304688 373.886719 C 757.707031 379.582031 757.898438 382.570312 757.878906 382.851562 C 757.882812 383.121094 757.949219 383.367188 758.066406 383.601562 L 758.671875 384.769531 C 758.761719 384.941406 758.816406 385.125 758.839844 385.320312 C 759.242188 389.542969 759.417969 392.488281 759.375 394.160156 C 759.230469 399.082031 756.625 399.261719 752.039062 400.070312 C 733.863281 403.261719 716.078125 406.460938 698.683594 409.679688 C 698.355469 409.738281 698.023438 409.769531 697.6875 409.769531 L 651.78125 409.898438 C 651.621094 409.898438 651.488281 409.835938 651.386719 409.710938 C 651.285156 409.585938 651.25 409.445312 651.28125 409.285156 C 653.425781 398.5 649.023438 387.066406 640.511719 380.4375 C 628.480469 371.0625 611.300781 372.625 600.894531 383.902344 C 595.347656 389.898438 592.875 397.363281 593.472656 406.289062 C 593.574219 407.734375 593.636719 408.804688 593.660156 409.503906 C 593.667969 409.609375 593.632812 409.699219 593.558594 409.777344 C 593.484375 409.851562 593.398438 409.890625 593.292969 409.890625 L 378.671875 409.890625 C 378.570312 409.890625 378.484375 409.851562 378.414062 409.777344 C 378.347656 409.703125 378.320312 409.613281 378.332031 409.511719 C 379.40625 400.148438 377.503906 392.289062 372.617188 385.933594 C 362.390625 372.632812 343.828125 370.355469 330.78125 381.132812 C 322.429688 388.03125 318.972656 397.476562 320.402344 409.464844 C 320.414062 409.582031 320.382812 409.6875 320.304688 409.773438 C 320.226562 409.863281 320.125 409.90625 320.007812 409.90625 C 259.867188 409.875 228.621094 409.828125 226.265625 409.769531 C 222.152344 409.664062 219.175781 407.65625 217.328125 403.746094 C 217.21875 403.515625 217.160156 403.269531 217.15625 403.011719 L 217.050781 391.722656 C 217.042969 391.441406 217.160156 391.21875 217.394531 391.058594 C 220 389.261719 223.652344 388.605469 225.835938 387.472656 C 229.949219 385.34375 230.769531 379.804688 230.339844 375.710938 C 230.324219 375.566406 230.28125 375.429688 230.207031 375.300781 C 230.132812 375.171875 230.039062 375.066406 229.917969 374.980469 C 229.796875 374.890625 229.664062 374.832031 229.519531 374.804688 C 229.375 374.773438 229.230469 374.773438 229.085938 374.808594 C 224.730469 375.777344 220.886719 377.375 217.554688 379.601562 C 217.464844 379.65625 217.378906 379.65625 217.289062 379.609375 C 217.199219 379.558594 217.15625 379.480469 217.164062 379.382812 C 217.257812 377.070312 217.226562 372.828125 217.070312 366.648438 C 216.976562 362.777344 217.339844 359.21875 218.160156 355.96875 C 222.246094 339.800781 227.871094 317.792969 235.035156 289.945312 Z M 249.4375 279.328125 C 248.304688 277.078125 244.566406 275.425781 242.242188 274.578125 C 242.066406 274.511719 241.890625 274.523438 241.722656 274.613281 C 241.550781 274.703125 241.445312 274.839844 241.398438 275.023438 L 240.015625 280.414062 C 239.996094 280.496094 239.996094 280.578125 240.015625 280.664062 C 240.03125 280.746094 240.070312 280.820312 240.121094 280.886719 C 240.175781 280.953125 240.242188 281 240.320312 281.035156 C 240.394531 281.070312 240.476562 281.082031 240.558594 281.078125 L 248.75 280.535156 C 248.890625 280.527344 249.019531 280.484375 249.136719 280.410156 C 249.257812 280.335938 249.351562 280.238281 249.417969 280.117188 C 249.488281 279.996094 249.523438 279.863281 249.527344 279.722656 C 249.53125 279.585938 249.5 279.453125 249.4375 279.328125 Z M 237.796875 289.570312 C 237.597656 289.570312 237.472656 289.667969 237.421875 289.863281 L 220.128906 357.46875 C 220.113281 357.535156 220.113281 357.601562 220.128906 357.664062 C 220.144531 357.730469 220.175781 357.785156 220.222656 357.835938 C 220.269531 357.882812 220.324219 357.917969 220.386719 357.941406 C 220.449219 357.960938 220.515625 357.964844 220.582031 357.953125 L 230.636719 356.074219 C 230.800781 356.042969 230.902344 355.949219 230.945312 355.785156 L 247.246094 290.058594 C 247.28125 289.9375 247.257812 289.824219 247.179688 289.722656 C 247.101562 289.621094 247 289.570312 246.871094 289.570312 Z M 431.292969 298.089844 C 431.292969 297.878906 431.21875 297.695312 431.066406 297.546875 C 430.917969 297.394531 430.734375 297.320312 430.523438 297.320312 L 386.972656 297.320312 C 386.761719 297.320312 386.578125 297.394531 386.429688 297.546875 C 386.277344 297.695312 386.203125 297.878906 386.203125 298.089844 L 386.203125 338.410156 C 386.203125 338.625 386.277344 338.804688 386.429688 338.957031 C 386.578125 339.105469 386.761719 339.179688 386.972656 339.179688 L 430.523438 339.179688 C 430.734375 339.179688 430.917969 339.105469 431.066406 338.957031 C 431.21875 338.804688 431.292969 338.625 431.292969 338.410156 Z M 483.035156 297.863281 C 483.035156 297.699219 482.976562 297.558594 482.859375 297.441406 C 482.742188 297.324219 482.601562 297.269531 482.4375 297.269531 L 438.753906 297.34375 C 438.585938 297.34375 438.445312 297.402344 438.332031 297.519531 C 438.214844 297.636719 438.15625 297.777344 438.15625 297.941406 L 438.226562 338.625 C 438.226562 338.789062 438.285156 338.929688 438.402344 339.046875 C 438.519531 339.160156 438.660156 339.21875 438.824219 339.21875 L 482.511719 339.144531 C 482.675781 339.144531 482.816406 339.085938 482.933594 338.96875 C 483.050781 338.851562 483.105469 338.710938 483.105469 338.546875 Z M 534.898438 297.917969 C 534.898438 297.742188 534.835938 297.589844 534.710938 297.46875 C 534.585938 297.34375 534.4375 297.28125 534.261719 297.285156 L 490.605469 297.359375 C 490.429688 297.359375 490.28125 297.421875 490.15625 297.546875 C 490.035156 297.667969 489.972656 297.820312 489.972656 297.996094 L 490.042969 338.601562 C 490.042969 338.777344 490.105469 338.925781 490.230469 339.050781 C 490.355469 339.171875 490.503906 339.234375 490.679688 339.234375 L 534.335938 339.160156 C 534.511719 339.15625 534.660156 339.097656 534.78125 338.972656 C 534.90625 338.847656 534.96875 338.699219 534.96875 338.523438 Z M 586.921875 297.960938 C 586.921875 297.785156 586.859375 297.632812 586.734375 297.507812 C 586.609375 297.382812 586.457031 297.320312 586.28125 297.320312 L 542.351562 297.320312 C 542.175781 297.320312 542.023438 297.382812 541.898438 297.507812 C 541.773438 297.632812 541.710938 297.785156 541.710938 297.960938 L 541.710938 338.554688 C 541.710938 338.730469 541.773438 338.882812 541.898438 339.007812 C 542.023438 339.132812 542.175781 339.195312 542.351562 339.195312 L 586.28125 339.195312 C 586.457031 339.195312 586.609375 339.132812 586.734375 339.007812 C 586.859375 338.882812 586.921875 338.730469 586.921875 338.554688 Z M 638.917969 298.015625 C 638.917969 297.824219 638.851562 297.660156 638.714844 297.523438 C 638.578125 297.390625 638.417969 297.320312 638.222656 297.320312 L 594.371094 297.320312 C 594.179688 297.320312 594.015625 297.390625 593.878906 297.523438 C 593.746094 297.660156 593.675781 297.824219 593.675781 298.015625 L 593.675781 338.515625 C 593.675781 338.707031 593.746094 338.871094 593.878906 339.007812 C 594.015625 339.144531 594.179688 339.210938 594.371094 339.210938 L 638.222656 339.210938 C 638.414062 339.210938 638.578125 339.144531 638.714844 339.007812 C 638.851562 338.871094 638.917969 338.707031 638.917969 338.515625 Z M 690.710938 297.992188 C 690.710938 297.808594 690.648438 297.652344 690.515625 297.523438 C 690.386719 297.394531 690.230469 297.328125 690.046875 297.328125 L 646.40625 297.328125 C 646.222656 297.328125 646.066406 297.394531 645.9375 297.523438 C 645.808594 297.652344 645.742188 297.808594 645.742188 297.992188 L 645.742188 338.523438 C 645.742188 338.707031 645.808594 338.863281 645.9375 338.996094 C 646.066406 339.125 646.222656 339.1875 646.40625 339.1875 L 690.046875 339.1875 C 690.230469 339.1875 690.386719 339.125 690.515625 338.996094 C 690.648438 338.863281 690.710938 338.707031 690.710938 338.523438 Z M 697.988281 339.097656 C 698.015625 339.144531 698.058594 339.164062 698.117188 339.167969 L 716.074219 339.167969 C 717.160156 339.167969 718.09375 338.785156 718.871094 338.027344 C 723.683594 333.347656 728.507812 328.40625 733.339844 323.210938 C 734.4375 322.03125 734.992188 320.996094 735.003906 320.101562 C 735.058594 313.125 735.042969 305.753906 734.957031 297.984375 C 734.953125 297.804688 734.890625 297.652344 734.765625 297.527344 C 734.636719 297.398438 734.484375 297.335938 734.308594 297.335938 L 698.273438 297.335938 C 698.113281 297.335938 697.980469 297.394531 697.867188 297.507812 C 697.753906 297.621094 697.699219 297.757812 697.699219 297.917969 L 697.808594 338.707031 C 697.804688 338.792969 697.828125 338.867188 697.875 338.933594 Z M 358.457031 297.34375 C 358.300781 297.34375 358.167969 297.398438 358.058594 297.511719 L 316.589844 338.238281 C 316.40625 338.417969 316.367188 338.625 316.460938 338.863281 C 316.558594 339.097656 316.734375 339.21875 316.988281 339.21875 L 378.777344 339.21875 C 378.933594 339.21875 379.070312 339.164062 379.179688 339.050781 C 379.292969 338.9375 379.347656 338.804688 379.347656 338.644531 L 379.347656 297.917969 C 379.347656 297.757812 379.292969 297.625 379.179688 297.511719 C 379.070312 297.398438 378.933594 297.34375 378.777344 297.34375 Z M 290.996094 299.351562 C 290.992188 299.152344 290.921875 298.984375 290.78125 298.84375 C 290.640625 298.703125 290.46875 298.632812 290.269531 298.632812 L 253.050781 298.632812 C 252.882812 298.636719 252.734375 298.6875 252.605469 298.792969 C 252.472656 298.894531 252.386719 299.03125 252.351562 299.191406 L 239.722656 352.683594 C 239.65625 352.964844 239.730469 353.199219 239.941406 353.390625 C 240.152344 353.582031 240.394531 353.632812 240.667969 353.539062 L 290.972656 336.167969 C 291.121094 336.121094 291.238281 336.03125 291.332031 335.902344 C 291.421875 335.773438 291.464844 335.632812 291.460938 335.476562 Z M 290.996094 299.351562 " fill-opacity="1" fill-rule="nonzero"/></g><g clip-path="url(#b1579339f7)"><path fill="#f5a623" d="M 372.585938 403.683594 C 372.585938 404.445312 372.550781 405.207031 372.476562 405.964844 C 372.398438 406.722656 372.289062 407.476562 372.140625 408.222656 C 371.992188 408.96875 371.804688 409.707031 371.585938 410.4375 C 371.363281 411.167969 371.109375 411.882812 370.816406 412.585938 C 370.523438 413.289062 370.199219 413.980469 369.839844 414.652344 C 369.480469 415.324219 369.089844 415.976562 368.667969 416.609375 C 368.242188 417.242188 367.789062 417.851562 367.304688 418.441406 C 366.824219 419.03125 366.3125 419.59375 365.773438 420.132812 C 365.234375 420.671875 364.671875 421.183594 364.082031 421.667969 C 363.492188 422.152344 362.882812 422.605469 362.25 423.027344 C 361.613281 423.449219 360.960938 423.839844 360.289062 424.199219 C 359.617188 424.558594 358.929688 424.886719 358.226562 425.175781 C 357.523438 425.46875 356.804688 425.722656 356.078125 425.945312 C 355.347656 426.167969 354.609375 426.351562 353.863281 426.5 C 353.117188 426.648438 352.363281 426.761719 351.605469 426.835938 C 350.847656 426.910156 350.085938 426.949219 349.324219 426.949219 C 348.5625 426.949219 347.800781 426.910156 347.042969 426.835938 C 346.285156 426.761719 345.535156 426.648438 344.785156 426.5 C 344.039062 426.351562 343.300781 426.167969 342.570312 425.945312 C 341.84375 425.722656 341.125 425.46875 340.421875 425.175781 C 339.71875 424.886719 339.03125 424.558594 338.359375 424.199219 C 337.6875 423.839844 337.035156 423.449219 336.402344 423.027344 C 335.765625 422.605469 335.15625 422.152344 334.566406 421.667969 C 333.976562 421.183594 333.414062 420.671875 332.875 420.132812 C 332.335938 419.59375 331.824219 419.03125 331.34375 418.441406 C 330.859375 417.855469 330.40625 417.242188 329.980469 416.609375 C 329.558594 415.976562 329.167969 415.324219 328.808594 414.652344 C 328.449219 413.980469 328.125 413.289062 327.832031 412.585938 C 327.542969 411.882812 327.285156 411.167969 327.0625 410.4375 C 326.84375 409.707031 326.65625 408.96875 326.507812 408.222656 C 326.359375 407.476562 326.25 406.722656 326.175781 405.964844 C 326.097656 405.207031 326.0625 404.445312 326.0625 403.683594 C 326.0625 402.921875 326.097656 402.164062 326.175781 401.40625 C 326.25 400.648438 326.359375 399.894531 326.507812 399.148438 C 326.65625 398.398438 326.84375 397.660156 327.0625 396.933594 C 327.285156 396.203125 327.542969 395.488281 327.832031 394.78125 C 328.125 394.078125 328.449219 393.390625 328.808594 392.71875 C 329.167969 392.046875 329.558594 391.394531 329.980469 390.761719 C 330.40625 390.128906 330.859375 389.515625 331.34375 388.925781 C 331.824219 388.339844 332.335938 387.773438 332.875 387.234375 C 333.414062 386.699219 333.976562 386.1875 334.566406 385.703125 C 335.15625 385.21875 335.765625 384.765625 336.402344 384.34375 C 337.035156 383.917969 337.6875 383.527344 338.359375 383.167969 C 339.03125 382.808594 339.71875 382.484375 340.421875 382.195312 C 341.125 381.902344 341.84375 381.644531 342.570312 381.425781 C 343.300781 381.203125 344.039062 381.019531 344.785156 380.871094 C 345.535156 380.722656 346.285156 380.609375 347.042969 380.535156 C 347.800781 380.460938 348.5625 380.421875 349.324219 380.421875 C 350.085938 380.421875 350.847656 380.460938 351.605469 380.535156 C 352.363281 380.609375 353.117188 380.722656 353.863281 380.871094 C 354.609375 381.019531 355.347656 381.203125 356.078125 381.425781 C 356.804688 381.644531 357.523438 381.902344 358.226562 382.191406 C 358.929688 382.484375 359.617188 382.808594 360.289062 383.167969 C 360.960938 383.527344 361.613281 383.917969 362.25 384.34375 C 362.882812 384.765625 363.492188 385.21875 364.082031 385.703125 C 364.671875 386.1875 365.234375 386.699219 365.773438 387.234375 C 366.3125 387.773438 366.824219 388.339844 367.304688 388.925781 C 367.789062 389.515625 368.242188 390.128906 368.667969 390.761719 C 369.089844 391.394531 369.480469 392.046875 369.839844 392.71875 C 370.199219 393.390625 370.523438 394.078125 370.816406 394.78125 C 371.109375 395.488281 371.363281 396.203125 371.585938 396.933594 C 371.804688 397.660156 371.992188 398.398438 372.140625 399.148438 C 372.289062 399.894531 372.398438 400.648438 372.476562 401.40625 C 372.550781 402.164062 372.585938 402.921875 372.585938 403.683594 Z M 361.089844 403.777344 C 361.089844 403.007812 361.015625 402.246094 360.867188 401.488281 C 360.714844 400.734375 360.492188 400.003906 360.199219 399.292969 C 359.90625 398.582031 359.542969 397.90625 359.117188 397.265625 C 358.691406 396.628906 358.203125 396.035156 357.660156 395.492188 C 357.117188 394.949219 356.523438 394.460938 355.886719 394.035156 C 355.246094 393.609375 354.570312 393.246094 353.859375 392.953125 C 353.148438 392.660156 352.417969 392.4375 351.664062 392.285156 C 350.90625 392.136719 350.144531 392.0625 349.378906 392.0625 C 348.609375 392.0625 347.847656 392.136719 347.09375 392.285156 C 346.335938 392.4375 345.605469 392.660156 344.894531 392.953125 C 344.183594 393.246094 343.507812 393.609375 342.871094 394.035156 C 342.230469 394.460938 341.636719 394.949219 341.09375 395.492188 C 340.550781 396.035156 340.066406 396.628906 339.636719 397.265625 C 339.210938 397.90625 338.847656 398.582031 338.554688 399.292969 C 338.261719 400.003906 338.039062 400.734375 337.886719 401.492188 C 337.738281 402.246094 337.664062 403.007812 337.664062 403.777344 C 337.664062 404.542969 337.738281 405.304688 337.886719 406.0625 C 338.039062 406.816406 338.261719 407.546875 338.554688 408.257812 C 338.847656 408.96875 339.210938 409.644531 339.636719 410.285156 C 340.066406 410.921875 340.550781 411.515625 341.09375 412.058594 C 341.636719 412.601562 342.230469 413.089844 342.871094 413.515625 C 343.507812 413.941406 344.183594 414.304688 344.894531 414.597656 C 345.605469 414.890625 346.335938 415.113281 347.09375 415.265625 C 347.847656 415.414062 348.609375 415.488281 349.378906 415.488281 C 350.144531 415.488281 350.90625 415.414062 351.664062 415.265625 C 352.417969 415.113281 353.148438 414.890625 353.859375 414.597656 C 354.570312 414.304688 355.246094 413.941406 355.886719 413.515625 C 356.523438 413.089844 357.117188 412.601562 357.660156 412.058594 C 358.203125 411.515625 358.691406 410.921875 359.117188 410.285156 C 359.542969 409.644531 359.90625 408.96875 360.199219 408.257812 C 360.492188 407.546875 360.714844 406.816406 360.867188 406.0625 C 361.015625 405.304688 361.089844 404.542969 361.089844 403.777344 Z M 361.089844 403.777344 " fill-opacity="1" fill-rule="nonzero"/></g><g clip-path="url(#2617807b09)"><path fill="#f5a623" d="M 645.800781 403.683594 C 645.800781 404.445312 645.765625 405.207031 645.691406 405.964844 C 645.617188 406.71875 645.503906 407.472656 645.355469 408.21875 C 645.207031 408.964844 645.023438 409.703125 644.800781 410.429688 C 644.582031 411.160156 644.324219 411.875 644.03125 412.578125 C 643.742188 413.28125 643.417969 413.96875 643.058594 414.640625 C 642.699219 415.3125 642.308594 415.964844 641.886719 416.597656 C 641.460938 417.230469 641.011719 417.839844 640.527344 418.429688 C 640.042969 419.015625 639.535156 419.578125 638.996094 420.117188 C 638.457031 420.65625 637.894531 421.167969 637.304688 421.648438 C 636.71875 422.132812 636.105469 422.585938 635.472656 423.007812 C 634.839844 423.429688 634.1875 423.820312 633.519531 424.179688 C 632.847656 424.539062 632.160156 424.863281 631.457031 425.15625 C 630.753906 425.445312 630.035156 425.703125 629.308594 425.925781 C 628.582031 426.144531 627.84375 426.328125 627.097656 426.476562 C 626.351562 426.625 625.597656 426.738281 624.839844 426.8125 C 624.082031 426.886719 623.324219 426.925781 622.5625 426.925781 C 621.800781 426.925781 621.042969 426.886719 620.285156 426.8125 C 619.527344 426.738281 618.773438 426.625 618.027344 426.476562 C 617.28125 426.328125 616.542969 426.144531 615.816406 425.925781 C 615.089844 425.703125 614.371094 425.445312 613.667969 425.15625 C 612.964844 424.863281 612.277344 424.539062 611.609375 424.179688 C 610.9375 423.820312 610.285156 423.429688 609.652344 423.007812 C 609.019531 422.585938 608.40625 422.132812 607.820312 421.648438 C 607.230469 421.167969 606.667969 420.65625 606.128906 420.117188 C 605.589844 419.578125 605.082031 419.015625 604.597656 418.429688 C 604.117188 417.839844 603.664062 417.230469 603.238281 416.597656 C 602.816406 415.964844 602.425781 415.3125 602.066406 414.640625 C 601.707031 413.96875 601.382812 413.28125 601.09375 412.578125 C 600.800781 411.875 600.542969 411.160156 600.324219 410.429688 C 600.101562 409.703125 599.917969 408.964844 599.769531 408.21875 C 599.621094 407.472656 599.507812 406.71875 599.433594 405.964844 C 599.359375 405.207031 599.324219 404.445312 599.324219 403.683594 C 599.324219 402.925781 599.359375 402.164062 599.433594 401.40625 C 599.507812 400.648438 599.621094 399.898438 599.769531 399.152344 C 599.917969 398.40625 600.101562 397.667969 600.324219 396.9375 C 600.542969 396.210938 600.800781 395.496094 601.09375 394.792969 C 601.382812 394.089844 601.707031 393.402344 602.066406 392.730469 C 602.425781 392.058594 602.816406 391.40625 603.238281 390.773438 C 603.664062 390.140625 604.117188 389.53125 604.597656 388.941406 C 605.082031 388.355469 605.589844 387.789062 606.128906 387.253906 C 606.667969 386.714844 607.230469 386.203125 607.820312 385.71875 C 608.40625 385.238281 609.019531 384.785156 609.652344 384.363281 C 610.285156 383.9375 610.9375 383.546875 611.609375 383.1875 C 612.277344 382.832031 612.964844 382.503906 613.667969 382.214844 C 614.371094 381.921875 615.089844 381.667969 615.816406 381.445312 C 616.542969 381.226562 617.28125 381.039062 618.027344 380.890625 C 618.773438 380.742188 619.527344 380.632812 620.285156 380.558594 C 621.042969 380.484375 621.800781 380.445312 622.5625 380.445312 C 623.324219 380.445312 624.082031 380.484375 624.839844 380.558594 C 625.597656 380.632812 626.351562 380.742188 627.097656 380.890625 C 627.84375 381.039062 628.582031 381.226562 629.308594 381.445312 C 630.035156 381.667969 630.753906 381.921875 631.457031 382.214844 C 632.160156 382.503906 632.847656 382.832031 633.519531 383.1875 C 634.1875 383.546875 634.839844 383.9375 635.472656 384.363281 C 636.105469 384.785156 636.71875 385.238281 637.304688 385.71875 C 637.894531 386.203125 638.457031 386.714844 638.996094 387.253906 C 639.535156 387.789062 640.042969 388.351562 640.527344 388.941406 C 641.011719 389.53125 641.460938 390.140625 641.886719 390.773438 C 642.308594 391.40625 642.699219 392.058594 643.058594 392.730469 C 643.417969 393.402344 643.742188 394.089844 644.03125 394.792969 C 644.324219 395.496094 644.582031 396.210938 644.800781 396.9375 C 645.023438 397.667969 645.207031 398.40625 645.355469 399.152344 C 645.503906 399.898438 645.617188 400.648438 645.691406 401.40625 C 645.765625 402.164062 645.800781 402.925781 645.800781 403.683594 Z M 634.320312 403.707031 C 634.320312 402.9375 634.246094 402.175781 634.097656 401.421875 C 633.945312 400.664062 633.722656 399.933594 633.429688 399.222656 C 633.136719 398.511719 632.773438 397.835938 632.347656 397.195312 C 631.917969 396.554688 631.433594 395.964844 630.890625 395.417969 C 630.34375 394.875 629.753906 394.390625 629.113281 393.960938 C 628.472656 393.535156 627.796875 393.171875 627.085938 392.878906 C 626.375 392.582031 625.640625 392.359375 624.886719 392.210938 C 624.132812 392.0625 623.371094 391.984375 622.601562 391.984375 C 621.832031 391.984375 621.070312 392.0625 620.3125 392.210938 C 619.558594 392.359375 618.824219 392.582031 618.113281 392.878906 C 617.402344 393.171875 616.726562 393.535156 616.089844 393.960938 C 615.449219 394.390625 614.855469 394.875 614.3125 395.417969 C 613.765625 395.964844 613.28125 396.554688 612.855469 397.195312 C 612.425781 397.835938 612.066406 398.511719 611.769531 399.222656 C 611.476562 399.933594 611.253906 400.664062 611.105469 401.421875 C 610.953125 402.175781 610.878906 402.9375 610.878906 403.707031 C 610.878906 404.476562 610.953125 405.238281 611.105469 405.996094 C 611.253906 406.75 611.476562 407.480469 611.769531 408.191406 C 612.066406 408.90625 612.425781 409.578125 612.855469 410.21875 C 613.28125 410.859375 613.765625 411.453125 614.3125 411.996094 C 614.855469 412.539062 615.449219 413.027344 616.089844 413.453125 C 616.726562 413.882812 617.402344 414.242188 618.113281 414.535156 C 618.824219 414.832031 619.558594 415.054688 620.3125 415.203125 C 621.066406 415.355469 621.832031 415.429688 622.601562 415.429688 C 623.371094 415.429688 624.132812 415.355469 624.886719 415.203125 C 625.640625 415.054688 626.375 414.832031 627.085938 414.535156 C 627.796875 414.242188 628.472656 413.882812 629.113281 413.453125 C 629.753906 413.027344 630.34375 412.539062 630.890625 411.996094 C 631.433594 411.453125 631.917969 410.859375 632.347656 410.21875 C 632.773438 409.578125 633.136719 408.90625 633.429688 408.191406 C 633.722656 407.480469 633.945312 406.75 634.097656 405.996094 C 634.246094 405.238281 634.320312 404.476562 634.320312 403.707031 Z M 634.320312 403.707031 " fill-opacity="1" fill-rule="nonzero"/></g></svg>