<svg xmlns="http://www.w3.org/2000/svg" xmlns:xlink="http://www.w3.org/1999/xlink" width="1366" zoomAndPan="magnify" viewBox="0 0 1024.5 576" height="768" preserveAspectRatio="xMidYMid meet" version="1.0"><defs><clipPath id="dc8e82dcc0"><path d="M 370.582031 107.199219 L 688.425781 107.199219 L 688.425781 425.046875 L 370.582031 425.046875 Z M 370.582031 107.199219 " clip-rule="nonzero"/></clipPath></defs><g clip-path="url(#dc8e82dcc0)"><path fill="#ffffff" d="M 529.921875 107.199219 L 529.414062 107.199219 C 441.726562 107.339844 370.582031 178.578125 370.582031 266.285156 C 370.582031 354.09375 441.863281 425.375 529.667969 425.375 C 617.472656 425.375 688.753906 354.09375 688.753906 266.285156 C 688.753906 178.578125 617.609375 107.339844 529.921875 107.199219 Z M 566.851562 329.921875 C 563.265625 350.378906 557.976562 368.050781 551.441406 381.453125 C 547.71875 389.113281 543.65625 395.265625 539.191406 399.441406 C 536.136719 402.273438 533.050781 404.160156 529.667969 404.160156 C 526.285156 404.160156 523.199219 402.273438 520.144531 399.441406 C 515.679688 395.265625 511.617188 389.113281 507.894531 381.453125 C 501.359375 368.050781 496.070312 350.378906 492.484375 329.921875 Z M 651.996094 329.921875 L 588.265625 329.921875 C 583.460938 358.855469 575.539062 383.078125 565.867188 399.359375 C 603.28125 389.1875 634.398438 363.636719 651.996094 329.921875 Z M 471.070312 329.921875 L 407.339844 329.921875 C 424.9375 363.636719 456.054688 389.1875 493.46875 399.359375 C 483.796875 383.078125 475.875 358.855469 471.070312 329.921875 Z M 468.21875 223.863281 L 398.453125 223.863281 C 394.125 237.226562 391.792969 251.480469 391.792969 266.285156 C 391.792969 281.09375 394.125 295.347656 398.453125 308.710938 L 468.21875 308.710938 C 466.796875 295.230469 466.035156 280.996094 466.035156 266.285156 C 466.035156 251.578125 466.796875 237.34375 468.21875 223.863281 Z M 569.851562 223.863281 C 571.304688 237.269531 572.089844 251.523438 572.089844 266.285156 C 572.089844 281.050781 571.304688 295.304688 569.851562 308.710938 L 489.484375 308.710938 C 488.03125 295.304688 487.246094 281.050781 487.246094 266.285156 C 487.246094 251.523438 488.03125 237.269531 489.484375 223.863281 Z M 660.882812 223.863281 L 591.117188 223.863281 C 592.539062 237.34375 593.300781 251.578125 593.300781 266.285156 C 593.300781 280.996094 592.539062 295.230469 591.117188 308.710938 L 660.882812 308.710938 C 665.210938 295.347656 667.542969 281.09375 667.542969 266.285156 C 667.542969 251.480469 665.210938 237.226562 660.882812 223.863281 Z M 493.46875 133.214844 C 456.054688 143.386719 424.9375 168.9375 407.339844 202.652344 L 471.070312 202.652344 C 475.875 173.71875 483.796875 149.496094 493.46875 133.214844 Z M 566.851562 202.652344 L 492.484375 202.652344 C 496.070312 182.195312 501.359375 164.523438 507.894531 151.117188 C 511.617188 143.460938 515.679688 137.308594 520.144531 133.132812 C 523.199219 130.300781 526.285156 128.414062 529.667969 128.414062 C 533.050781 128.414062 536.136719 130.300781 539.191406 133.132812 C 543.65625 137.308594 547.71875 143.460938 551.441406 151.117188 C 557.976562 164.523438 563.265625 182.195312 566.851562 202.652344 Z M 565.867188 133.214844 C 575.539062 149.496094 583.460938 173.71875 588.265625 202.652344 L 651.996094 202.652344 C 634.398438 168.9375 603.28125 143.386719 565.867188 133.214844 Z M 565.867188 133.214844 " fill-opacity="1" fill-rule="evenodd"/></g></svg>