<svg xmlns="http://www.w3.org/2000/svg" xmlns:xlink="http://www.w3.org/1999/xlink" width="1366" zoomAndPan="magnify" viewBox="0 0 1024.5 576" height="768" preserveAspectRatio="xMidYMid meet" version="1.0"><defs><clipPath id="14987c22b2"><path d="M 342.574219 108.082031 L 681.40625 108.082031 L 681.40625 446.917969 L 342.574219 446.917969 Z M 342.574219 108.082031 " clip-rule="nonzero"/></clipPath></defs><g clip-path="url(#14987c22b2)"><path fill="#3ae191" d="M 511.996094 108.082031 C 418.574219 108.082031 342.574219 184.082031 342.574219 277.503906 C 342.574219 370.925781 418.574219 446.929688 511.996094 446.929688 C 605.417969 446.929688 681.417969 370.925781 681.417969 277.503906 C 681.417969 184.082031 605.417969 108.082031 511.996094 108.082031 Z M 511.996094 414.136719 C 436.65625 414.136719 375.363281 352.84375 375.363281 277.503906 C 375.363281 202.167969 436.65625 140.875 511.996094 140.875 C 587.335938 140.875 648.628906 202.167969 648.628906 277.503906 C 648.628906 352.84375 587.335938 414.136719 511.996094 414.136719 Z M 511.996094 414.136719 " fill-opacity="1" fill-rule="nonzero"/></g><path fill="#3ae191" d="M 511.996094 223.953125 C 502.9375 223.953125 495.601562 231.296875 495.601562 240.347656 L 495.601562 361.382812 C 495.601562 370.4375 502.9375 377.78125 511.996094 377.78125 C 521.054688 377.78125 528.390625 370.4375 528.390625 361.382812 L 528.390625 240.347656 C 528.390625 231.296875 521.054688 223.953125 511.996094 223.953125 Z M 511.996094 223.953125 " fill-opacity="1" fill-rule="nonzero"/><path fill="#3ae191" d="M 511.996094 177.230469 C 502.9375 177.230469 495.601562 184.574219 495.601562 193.625 L 495.601562 193.679688 C 495.601562 202.730469 502.9375 210.054688 511.996094 210.054688 C 521.054688 210.054688 528.390625 202.679688 528.390625 193.625 C 528.390625 184.574219 521.054688 177.230469 511.996094 177.230469 Z M 511.996094 177.230469 " fill-opacity="1" fill-rule="nonzero"/></svg>