<svg xmlns="http://www.w3.org/2000/svg" xmlns:xlink="http://www.w3.org/1999/xlink" width="1366" zoomAndPan="magnify" viewBox="0 0 1024.5 576" height="768" preserveAspectRatio="xMidYMid meet" version="1.0"><defs><clipPath id="95c832ff61"><path d="M 409.515625 159.921875 L 600 159.921875 L 600 349.582031 L 409.515625 349.582031 Z M 409.515625 159.921875 " clip-rule="nonzero"/></clipPath></defs><path fill="#7ed957" d="M 449.070312 241.421875 C 440.785156 235.640625 465.226562 221.386719 478.625 230.792969 C 478.722656 230.878906 495.492188 246.4375 504.804688 267.085938 C 516.265625 249.910156 542.566406 210.867188 581.105469 190.976562 C 604.667969 178.816406 631.355469 173.953125 628.003906 182.007812 C 607.671875 193.179688 552.34375 230.246094 515.144531 303.097656 C 513.417969 306.761719 509.980469 309.550781 505.683594 310.265625 C 498.726562 311.425781 488.082031 304.019531 486.921875 297.0625 C 474.65625 268.351562 462.121094 253.222656 449.070312 241.421875 Z M 449.070312 241.421875 " fill-opacity="1" fill-rule="nonzero"/><g clip-path="url(#95c832ff61)"><path fill="#7ed957" d="M 439.308594 159.925781 L 570.296875 159.925781 C 578.410156 159.925781 585.78125 163.242188 591.117188 168.578125 C 593.175781 170.636719 594.929688 172.992188 596.3125 175.578125 C 592.238281 177.011719 588.210938 178.644531 584.316406 180.410156 C 583.667969 179.402344 582.914062 178.472656 582.070312 177.628906 C 579.046875 174.601562 574.875 172.722656 570.296875 172.722656 L 439.308594 172.722656 C 434.730469 172.722656 430.5625 174.601562 427.535156 177.628906 C 424.507812 180.652344 422.628906 184.824219 422.628906 189.402344 L 422.628906 320.386719 C 422.628906 324.96875 424.507812 329.136719 427.535156 332.164062 C 430.5625 335.1875 434.730469 337.066406 439.308594 337.066406 L 570.296875 337.066406 C 574.875 337.066406 579.046875 335.1875 582.070312 332.164062 C 585.097656 329.136719 586.976562 324.96875 586.976562 320.386719 L 586.976562 222.078125 C 591.0625 218.355469 595.347656 214.660156 599.773438 211.078125 L 599.773438 320.386719 C 599.773438 328.5 596.457031 335.871094 591.117188 341.210938 C 585.78125 346.550781 578.410156 349.863281 570.296875 349.863281 L 439.308594 349.863281 C 431.195312 349.863281 423.824219 346.550781 418.488281 341.210938 C 413.148438 335.871094 409.832031 328.5 409.832031 320.386719 L 409.832031 189.402344 C 409.832031 181.289062 413.148438 173.917969 418.488281 168.578125 C 423.824219 163.242188 431.195312 159.925781 439.308594 159.925781 Z M 439.308594 159.925781 " fill-opacity="1" fill-rule="nonzero"/></g></svg>