<svg xmlns="http://www.w3.org/2000/svg" xmlns:xlink="http://www.w3.org/1999/xlink" width="1366" zoomAndPan="magnify" viewBox="0 0 1024.5 576" height="768" preserveAspectRatio="xMidYMid meet" version="1.0"><defs><clipPath id="916aaea91a"><path d="M 404.921875 127 L 605 127 L 605 393 L 404.921875 393 Z M 404.921875 127 " clip-rule="nonzero"/></clipPath></defs><g clip-path="url(#916aaea91a)"><path fill="#f5a623" d="M 578.761719 221.171875 L 571 221.171875 C 571.871094 207.335938 572.707031 170.175781 551.34375 146.113281 C 539.90625 133.230469 524.34375 127.085938 505.078125 127.085938 C 505.066406 127.085938 505.050781 127.085938 505.039062 127.085938 C 484.941406 127.085938 468.75 133.460938 456.925781 146.773438 C 435.480469 170.921875 436.144531 210.101562 436.976562 221.171875 L 431.332031 221.171875 C 416.949219 221.171875 404.820312 232.832031 404.820312 247.210938 L 404.820312 367.050781 C 404.820312 381.429688 416.945312 392.738281 431.332031 392.738281 L 578.761719 392.738281 C 593.140625 392.738281 604.0625 381.429688 604.0625 367.050781 L 604.0625 247.210938 C 604.0625 232.832031 593.140625 221.171875 578.761719 221.171875 Z M 523.300781 351.230469 L 489.070312 351.230469 L 494.515625 313.023438 C 486.308594 309.074219 480.59375 300.496094 480.59375 290.773438 C 480.59375 277.265625 491.542969 266.179688 505.046875 266.179688 C 518.550781 266.179688 529.5 277.066406 529.5 290.570312 C 529.5 299.640625 524.503906 307.972656 517.171875 312.1875 Z M 547.453125 221.171875 L 460.523438 221.171875 C 459.972656 215.636719 457.984375 180.199219 474.523438 161.644531 C 481.800781 153.480469 491.789062 149.222656 505.054688 149.222656 C 505.066406 149.222656 505.070312 149.222656 505.082031 149.222656 C 517.492188 149.222656 526.875 153.257812 533.753906 160.984375 C 550.214844 179.46875 548.015625 215.636719 547.453125 221.171875 Z M 547.453125 221.171875 " fill-opacity="1" fill-rule="nonzero"/></g></svg>