<svg xmlns="http://www.w3.org/2000/svg" xmlns:xlink="http://www.w3.org/1999/xlink" width="1366" zoomAndPan="magnify" viewBox="0 0 1024.5 576" height="768" preserveAspectRatio="xMidYMid meet" version="1.0"><defs><clipPath id="826a890252"><path d="M 351.523438 144.433594 L 548 144.433594 L 548 431.542969 L 351.523438 431.542969 Z M 351.523438 144.433594 " clip-rule="nonzero"/></clipPath><clipPath id="afeb55d518"><path d="M 573 235 L 638.632812 235 L 638.632812 341 L 573 341 Z M 573 235 " clip-rule="nonzero"/></clipPath></defs><g clip-path="url(#826a890252)"><path fill="#ffffff" d="M 508.136719 431.554688 L 390.675781 431.554688 C 389.394531 431.554688 388.113281 431.492188 386.839844 431.367188 C 385.5625 431.242188 384.296875 431.054688 383.039062 430.804688 C 381.78125 430.554688 380.539062 430.242188 379.3125 429.871094 C 378.082031 429.496094 376.878906 429.066406 375.691406 428.574219 C 374.507812 428.085938 373.351562 427.539062 372.21875 426.933594 C 371.089844 426.328125 369.992188 425.671875 368.925781 424.957031 C 367.859375 424.246094 366.828125 423.480469 365.839844 422.667969 C 364.847656 421.855469 363.898438 420.996094 362.992188 420.089844 C 362.085938 419.179688 361.222656 418.234375 360.410156 417.242188 C 359.597656 416.25 358.835938 415.222656 358.121094 414.15625 C 357.410156 413.089844 356.75 411.992188 356.148438 410.859375 C 355.542969 409.730469 354.996094 408.570312 354.503906 407.386719 C 354.011719 406.203125 353.582031 404.996094 353.210938 403.769531 C 352.835938 402.542969 352.527344 401.300781 352.277344 400.042969 C 352.027344 398.785156 351.835938 397.515625 351.710938 396.242188 C 351.585938 394.964844 351.523438 393.683594 351.523438 392.402344 L 351.523438 183.585938 C 351.523438 182.304688 351.585938 181.027344 351.710938 179.75 C 351.835938 178.472656 352.027344 177.207031 352.277344 175.949219 C 352.527344 174.691406 352.835938 173.449219 353.210938 172.222656 C 353.582031 170.996094 354.011719 169.789062 354.503906 168.605469 C 354.996094 167.417969 355.542969 166.261719 356.148438 165.128906 C 356.75 164 357.410156 162.902344 358.121094 161.835938 C 358.835938 160.769531 359.597656 159.742188 360.410156 158.75 C 361.222656 157.757812 362.085938 156.808594 362.992188 155.902344 C 363.898438 154.996094 364.847656 154.136719 365.839844 153.320312 C 366.828125 152.507812 367.859375 151.746094 368.925781 151.03125 C 369.992188 150.320312 371.089844 149.660156 372.21875 149.058594 C 373.351562 148.453125 374.507812 147.90625 375.691406 147.414062 C 376.878906 146.925781 378.082031 146.492188 379.3125 146.121094 C 380.539062 145.75 381.78125 145.4375 383.039062 145.1875 C 384.296875 144.9375 385.5625 144.75 386.839844 144.621094 C 388.113281 144.496094 389.394531 144.433594 390.675781 144.433594 L 508.136719 144.433594 C 509.417969 144.433594 510.695312 144.496094 511.972656 144.621094 C 513.25 144.75 514.515625 144.9375 515.773438 145.1875 C 517.03125 145.4375 518.273438 145.75 519.5 146.121094 C 520.726562 146.492188 521.933594 146.925781 523.117188 147.414062 C 524.304688 147.90625 525.460938 148.453125 526.589844 149.058594 C 527.722656 149.660156 528.820312 150.320312 529.886719 151.03125 C 530.953125 151.746094 531.980469 152.507812 532.972656 153.320312 C 533.964844 154.136719 534.914062 154.996094 535.820312 155.902344 C 536.726562 156.808594 537.585938 157.757812 538.402344 158.75 C 539.214844 159.742188 539.976562 160.769531 540.691406 161.835938 C 541.402344 162.902344 542.058594 164 542.664062 165.128906 C 543.269531 166.261719 543.816406 167.417969 544.308594 168.605469 C 544.796875 169.789062 545.230469 170.996094 545.601562 172.222656 C 545.972656 173.449219 546.285156 174.691406 546.535156 175.949219 C 546.785156 177.207031 546.972656 178.472656 547.097656 179.75 C 547.226562 181.027344 547.289062 182.304688 547.289062 183.585938 L 547.289062 229.265625 C 547.289062 230.121094 547.203125 230.972656 547.039062 231.8125 C 546.871094 232.652344 546.621094 233.46875 546.292969 234.261719 C 545.964844 235.050781 545.566406 235.804688 545.089844 236.515625 C 544.613281 237.230469 544.070312 237.886719 543.464844 238.496094 C 542.859375 239.101562 542.199219 239.640625 541.488281 240.117188 C 540.773438 240.59375 540.023438 240.996094 539.230469 241.324219 C 538.441406 241.652344 537.625 241.898438 536.78125 242.066406 C 535.941406 242.234375 535.09375 242.316406 534.238281 242.316406 C 533.378906 242.316406 532.53125 242.234375 531.691406 242.066406 C 530.851562 241.898438 530.035156 241.652344 529.242188 241.324219 C 528.449219 240.996094 527.699219 240.59375 526.984375 240.117188 C 526.273438 239.640625 525.613281 239.101562 525.007812 238.496094 C 524.402344 237.886719 523.863281 237.230469 523.386719 236.515625 C 522.910156 235.804688 522.507812 235.050781 522.179688 234.261719 C 521.851562 233.46875 521.605469 232.652344 521.4375 231.8125 C 521.269531 230.972656 521.1875 230.121094 521.1875 229.265625 L 521.1875 183.585938 C 521.1875 182.730469 521.101562 181.882812 520.933594 181.042969 C 520.769531 180.199219 520.519531 179.382812 520.191406 178.59375 C 519.863281 177.800781 519.460938 177.050781 518.988281 176.335938 C 518.511719 175.625 517.96875 174.964844 517.363281 174.359375 C 516.757812 173.753906 516.097656 173.210938 515.386719 172.734375 C 514.671875 172.261719 513.921875 171.859375 513.128906 171.53125 C 512.335938 171.203125 511.523438 170.953125 510.679688 170.789062 C 509.839844 170.621094 508.992188 170.535156 508.136719 170.535156 L 390.675781 170.535156 C 389.820312 170.535156 388.96875 170.621094 388.128906 170.789062 C 387.289062 170.953125 386.472656 171.203125 385.683594 171.53125 C 384.890625 171.859375 384.136719 172.261719 383.425781 172.734375 C 382.714844 173.210938 382.054688 173.753906 381.449219 174.359375 C 380.84375 174.964844 380.300781 175.625 379.824219 176.335938 C 379.347656 177.050781 378.945312 177.800781 378.617188 178.59375 C 378.289062 179.382812 378.042969 180.199219 377.875 181.042969 C 377.707031 181.882812 377.625 182.730469 377.625 183.585938 L 377.625 392.402344 C 377.625 393.261719 377.707031 394.109375 377.875 394.949219 C 378.042969 395.789062 378.289062 396.605469 378.617188 397.398438 C 378.945312 398.1875 379.347656 398.941406 379.824219 399.652344 C 380.300781 400.367188 380.84375 401.027344 381.449219 401.632812 C 382.054688 402.238281 382.714844 402.777344 383.425781 403.253906 C 384.136719 403.730469 384.890625 404.132812 385.683594 404.460938 C 386.472656 404.789062 387.289062 405.035156 388.128906 405.203125 C 388.96875 405.371094 389.820312 405.453125 390.675781 405.453125 L 508.136719 405.453125 C 508.992188 405.453125 509.839844 405.371094 510.679688 405.203125 C 511.523438 405.035156 512.335938 404.789062 513.128906 404.460938 C 513.921875 404.132812 514.671875 403.730469 515.386719 403.253906 C 516.097656 402.777344 516.757812 402.238281 517.363281 401.632812 C 517.96875 401.027344 518.511719 400.367188 518.988281 399.652344 C 519.460938 398.941406 519.863281 398.1875 520.191406 397.398438 C 520.519531 396.605469 520.769531 395.789062 520.933594 394.949219 C 521.101562 394.109375 521.1875 393.261719 521.1875 392.402344 L 521.1875 346.726562 C 521.1875 345.867188 521.269531 345.019531 521.4375 344.179688 C 521.605469 343.339844 521.851562 342.523438 522.179688 341.730469 C 522.507812 340.9375 522.910156 340.1875 523.386719 339.472656 C 523.863281 338.761719 524.402344 338.101562 525.007812 337.496094 C 525.613281 336.890625 526.273438 336.347656 526.984375 335.875 C 527.699219 335.398438 528.449219 334.996094 529.242188 334.667969 C 530.035156 334.339844 530.851562 334.089844 531.691406 333.925781 C 532.53125 333.757812 533.378906 333.671875 534.238281 333.671875 C 535.09375 333.671875 535.941406 333.757812 536.78125 333.925781 C 537.625 334.089844 538.441406 334.339844 539.230469 334.667969 C 540.023438 334.996094 540.773438 335.398438 541.488281 335.875 C 542.199219 336.347656 542.859375 336.890625 543.464844 337.496094 C 544.070312 338.101562 544.613281 338.761719 545.089844 339.472656 C 545.566406 340.1875 545.964844 340.9375 546.292969 341.730469 C 546.621094 342.523438 546.871094 343.339844 547.039062 344.179688 C 547.203125 345.019531 547.289062 345.867188 547.289062 346.726562 L 547.289062 392.402344 C 547.289062 393.683594 547.226562 394.964844 547.097656 396.242188 C 546.972656 397.515625 546.785156 398.785156 546.535156 400.042969 C 546.285156 401.300781 545.972656 402.542969 545.601562 403.769531 C 545.230469 404.996094 544.796875 406.203125 544.308594 407.386719 C 543.816406 408.570312 543.269531 409.730469 542.664062 410.859375 C 542.058594 411.992188 541.402344 413.089844 540.691406 414.15625 C 539.976562 415.222656 539.214844 416.25 538.402344 417.242188 C 537.585938 418.234375 536.726562 419.179688 535.820312 420.089844 C 534.914062 420.996094 533.964844 421.855469 532.972656 422.667969 C 531.980469 423.480469 530.953125 424.246094 529.886719 424.957031 C 528.820312 425.671875 527.722656 426.328125 526.589844 426.933594 C 525.460938 427.539062 524.304688 428.085938 523.117188 428.574219 C 521.933594 429.066406 520.726562 429.496094 519.5 429.871094 C 518.273438 430.242188 517.03125 430.554688 515.773438 430.804688 C 514.515625 431.054688 513.25 431.242188 511.972656 431.367188 C 510.695312 431.492188 509.417969 431.554688 508.136719 431.554688 Z M 508.136719 431.554688 " fill-opacity="1" fill-rule="nonzero"/></g><path fill="#ffffff" d="M 619.070312 301.046875 L 448.230469 301.046875 C 447.375 301.046875 446.527344 300.960938 445.683594 300.796875 C 444.84375 300.628906 444.027344 300.378906 443.238281 300.050781 C 442.445312 299.726562 441.691406 299.324219 440.980469 298.847656 C 440.269531 298.371094 439.609375 297.828125 439.003906 297.222656 C 438.398438 296.617188 437.855469 295.957031 437.378906 295.246094 C 436.902344 294.535156 436.5 293.78125 436.171875 292.988281 C 435.84375 292.199219 435.597656 291.382812 435.429688 290.542969 C 435.265625 289.699219 435.179688 288.851562 435.179688 287.996094 C 435.179688 287.136719 435.265625 286.289062 435.429688 285.449219 C 435.597656 284.609375 435.84375 283.792969 436.171875 283 C 436.5 282.210938 436.902344 281.457031 437.378906 280.746094 C 437.855469 280.03125 438.398438 279.371094 439.003906 278.765625 C 439.609375 278.160156 440.269531 277.621094 440.980469 277.144531 C 441.691406 276.667969 442.445312 276.265625 443.238281 275.9375 C 444.027344 275.609375 444.84375 275.363281 445.683594 275.195312 C 446.527344 275.027344 447.375 274.945312 448.230469 274.945312 L 619.070312 274.945312 C 619.925781 274.945312 620.773438 275.027344 621.613281 275.195312 C 622.453125 275.363281 623.269531 275.609375 624.0625 275.9375 C 624.855469 276.265625 625.605469 276.667969 626.320312 277.144531 C 627.03125 277.621094 627.691406 278.160156 628.296875 278.765625 C 628.902344 279.371094 629.445312 280.03125 629.917969 280.746094 C 630.394531 281.457031 630.796875 282.210938 631.125 283 C 631.453125 283.792969 631.703125 284.609375 631.867188 285.449219 C 632.035156 286.289062 632.121094 287.136719 632.121094 287.996094 C 632.121094 288.851562 632.035156 289.699219 631.867188 290.542969 C 631.703125 291.382812 631.453125 292.199219 631.125 292.988281 C 630.796875 293.78125 630.394531 294.535156 629.917969 295.246094 C 629.445312 295.957031 628.902344 296.617188 628.296875 297.222656 C 627.691406 297.828125 627.03125 298.371094 626.320312 298.847656 C 625.605469 299.324219 624.855469 299.726562 624.0625 300.050781 C 623.269531 300.378906 622.453125 300.628906 621.613281 300.796875 C 620.773438 300.960938 619.925781 301.046875 619.070312 301.046875 Z M 619.070312 301.046875 " fill-opacity="1" fill-rule="nonzero"/><g clip-path="url(#afeb55d518)"><path fill="#ffffff" d="M 586.441406 340.199219 C 585.15625 340.195312 583.894531 340.003906 582.667969 339.625 C 581.4375 339.246094 580.285156 338.699219 579.21875 337.980469 C 578.152344 337.265625 577.210938 336.410156 576.394531 335.414062 C 575.578125 334.417969 574.925781 333.324219 574.433594 332.136719 C 573.945312 330.945312 573.632812 329.710938 573.507812 328.429688 C 573.382812 327.152344 573.441406 325.878906 573.691406 324.617188 C 573.941406 323.355469 574.367188 322.15625 574.972656 321.019531 C 575.578125 319.882812 576.332031 318.859375 577.238281 317.945312 L 607.125 287.996094 L 577.175781 258.042969 C 576.570312 257.4375 576.027344 256.777344 575.550781 256.0625 C 575.074219 255.351562 574.671875 254.597656 574.34375 253.808594 C 574.015625 253.015625 573.769531 252.199219 573.601562 251.355469 C 573.433594 250.515625 573.351562 249.667969 573.351562 248.808594 C 573.351562 247.953125 573.433594 247.101562 573.601562 246.261719 C 573.769531 245.421875 574.015625 244.605469 574.34375 243.8125 C 574.671875 243.019531 575.074219 242.269531 575.550781 241.554688 C 576.027344 240.84375 576.570312 240.183594 577.175781 239.574219 C 577.78125 238.96875 578.441406 238.429688 579.152344 237.953125 C 579.867188 237.476562 580.617188 237.074219 581.410156 236.746094 C 582.203125 236.417969 583.019531 236.167969 583.859375 236.003906 C 584.703125 235.835938 585.550781 235.75 586.410156 235.75 C 587.265625 235.75 588.113281 235.835938 588.957031 236.003906 C 589.796875 236.167969 590.613281 236.417969 591.40625 236.746094 C 592.199219 237.074219 592.949219 237.476562 593.664062 237.953125 C 594.375 238.429688 595.035156 238.96875 595.640625 239.574219 L 634.792969 278.730469 C 635.402344 279.335938 635.941406 279.996094 636.421875 280.707031 C 636.898438 281.421875 637.300781 282.171875 637.628906 282.964844 C 637.957031 283.757812 638.203125 284.574219 638.371094 285.414062 C 638.539062 286.253906 638.621094 287.105469 638.621094 287.960938 C 638.621094 288.820312 638.539062 289.667969 638.371094 290.511719 C 638.203125 291.351562 637.957031 292.167969 637.628906 292.960938 C 637.300781 293.753906 636.898438 294.503906 636.421875 295.21875 C 635.941406 295.929688 635.402344 296.589844 634.792969 297.195312 L 595.640625 336.347656 C 594.421875 337.574219 593.019531 338.519531 591.421875 339.1875 C 589.828125 339.855469 588.167969 340.191406 586.441406 340.199219 Z M 586.441406 340.199219 " fill-opacity="1" fill-rule="nonzero"/></g></svg>