<svg xmlns="http://www.w3.org/2000/svg" xmlns:xlink="http://www.w3.org/1999/xlink" width="1366" zoomAndPan="magnify" viewBox="0 0 1024.5 576" height="768" preserveAspectRatio="xMidYMid meet" version="1.0"><defs><clipPath id="649a01a1f1"><path d="M 373.523438 173 L 650.140625 173 L 650.140625 380.574219 L 373.523438 380.574219 Z M 373.523438 173 " clip-rule="nonzero"/></clipPath></defs><g clip-path="url(#649a01a1f1)"><path fill="#00bf63" d="M 628.738281 380.441406 L 394.984375 380.441406 C 393.210938 380.210938 391.917969 380.011719 391.109375 379.84375 C 383.621094 378.269531 377.40625 372.402344 374.910156 365.402344 C 374.164062 363.308594 373.886719 361.117188 373.523438 358.894531 L 373.523438 194.292969 C 373.914062 193.234375 373.886719 192.046875 374.105469 191.144531 C 374.402344 189.914062 374.703125 188.539062 375.191406 187.398438 C 378.351562 180.011719 383.859375 175.449219 391.722656 173.707031 C 392.445312 173.546875 393.167969 173.449219 393.894531 173.417969 C 394.871094 173.378906 395.824219 173.148438 396.8125 173.148438 C 472.96875 173.113281 549.933594 173.113281 627.714844 173.148438 C 628.308594 173.148438 628.898438 173.191406 629.480469 173.277344 C 630.0625 173.367188 630.648438 173.449219 631.238281 173.527344 C 633.277344 173.796875 635.074219 174.277344 636.636719 174.976562 C 644.082031 178.296875 649.574219 185.292969 650.121094 193.621094 C 650.210938 194.972656 650.347656 196.285156 650.339844 197.625 C 650.027344 238.957031 650.199219 280.320312 650.203125 324.570312 C 650.203125 334.050781 650.453125 344.023438 650.320312 354.007812 C 650.277344 357.082031 650.207031 359.164062 650.105469 360.253906 C 649.488281 366.792969 646.402344 372.125 640.84375 376.246094 C 638.199219 378.207031 635.238281 379.453125 631.96875 379.984375 C 630.894531 380.160156 629.820312 380.3125 628.738281 380.441406 Z M 507.816406 297.761719 C 511.332031 299.09375 515.460938 298.226562 518.191406 295.6875 C 542.316406 273.222656 566.300781 250.988281 590.152344 228.984375 C 603.929688 216.273438 617.585938 203.628906 631.121094 191.046875 C 631.332031 190.855469 631.339844 190.65625 631.140625 190.445312 C 630.835938 190.121094 630.375 189.960938 629.769531 189.960938 C 550.773438 189.933594 472.738281 189.917969 395.660156 189.917969 C 394.148438 189.917969 393.285156 190.269531 392.265625 191.246094 C 392.117188 191.386719 392.121094 191.527344 392.273438 191.664062 C 393.097656 192.386719 393.921875 193.125 394.75 193.878906 C 403.941406 202.277344 414.253906 211.808594 425.683594 222.472656 C 450.21875 245.363281 474.027344 267.492188 497.117188 288.859375 C 499.167969 290.753906 501.269531 292.699219 503.429688 294.691406 C 505.164062 296.289062 506.625 297.3125 507.816406 297.761719 Z M 633.117188 213 C 633.117188 212.941406 633.089844 212.894531 633.03125 212.851562 C 632.976562 212.804688 632.917969 212.800781 632.859375 212.847656 C 630.957031 214.3125 629.429688 216.039062 627.621094 217.722656 C 608.027344 235.925781 587.925781 254.675781 567.316406 273.976562 C 567.121094 274.164062 566.914062 274.332031 566.695312 274.476562 C 566.378906 274.6875 566.367188 274.917969 566.65625 275.164062 C 567.34375 275.746094 567.949219 276.285156 568.480469 276.78125 C 579.621094 287.21875 591.613281 298.519531 604.457031 310.683594 C 606.941406 313.035156 609.121094 315.132812 611 316.980469 C 613.042969 318.984375 615.214844 320.882812 617.25 322.882812 C 618.84375 324.449219 620.40625 325.921875 621.929688 327.308594 C 624.46875 329.609375 626.792969 332.03125 629.347656 334.339844 C 630.554688 335.429688 631.726562 336.566406 632.859375 337.742188 C 632.90625 337.792969 632.960938 337.8125 633.027344 337.800781 C 633.132812 337.78125 633.183594 337.734375 633.183594 337.65625 C 633.1875 296.171875 633.183594 254.703125 633.175781 213.253906 C 633.175781 213.199219 633.164062 213.148438 633.140625 213.097656 C 633.125 213.070312 633.117188 213.035156 633.117188 213 Z M 391.03125 337.804688 C 392.746094 336.089844 394.601562 334.285156 396.601562 332.382812 C 414.523438 315.332031 432.226562 298.429688 449.707031 281.667969 C 451.695312 279.761719 453.785156 277.785156 455.980469 275.742188 C 456.410156 275.347656 456.40625 274.953125 455.972656 274.5625 C 455.128906 273.792969 454.328125 273.054688 453.570312 272.347656 C 432.449219 252.570312 412.566406 234.046875 393.917969 216.773438 C 392.796875 215.738281 391.730469 214.742188 390.707031 213.78125 C 390.664062 213.738281 390.640625 213.738281 390.640625 213.78125 L 390.558594 337.605469 C 390.558594 338.050781 390.714844 338.117188 391.03125 337.804688 Z M 512.800781 315.6875 C 504.402344 316.070312 497.632812 313.027344 491.488281 307.242188 C 485.898438 301.984375 479 295.523438 470.792969 287.859375 C 470.445312 287.535156 470.074219 287.222656 469.675781 286.921875 C 469.558594 286.832031 469.425781 286.792969 469.28125 286.800781 C 469.132812 286.808594 469.007812 286.863281 468.898438 286.960938 C 467.867188 287.898438 466.890625 288.949219 465.890625 289.902344 C 444.480469 310.351562 423.277344 330.65625 402.277344 350.816406 C 399.625 353.363281 397.257812 355.585938 395.183594 357.484375 C 394.011719 358.554688 392.90625 359.613281 391.871094 360.65625 C 391.589844 360.9375 391.585938 361.222656 391.859375 361.511719 C 393.519531 363.28125 394.980469 363.160156 397.664062 363.160156 C 474.425781 363.160156 551.191406 363.160156 627.953125 363.160156 C 629.847656 363.160156 630.898438 362.96875 631.90625 361.4375 C 632.140625 361.082031 632.101562 360.757812 631.792969 360.46875 C 607.058594 337.070312 582.328125 313.640625 557.609375 290.1875 C 556.234375 288.882812 555.066406 287.703125 554.109375 286.652344 C 553.984375 286.515625 553.824219 286.441406 553.640625 286.433594 C 553.453125 286.425781 553.289062 286.484375 553.152344 286.613281 C 546.183594 293.054688 539.265625 299.589844 532.355469 306.085938 C 529.707031 308.578125 527.652344 310.292969 526.203125 311.230469 C 521.925781 313.992188 517.457031 315.476562 512.800781 315.6875 Z M 512.800781 315.6875 " fill-opacity="1" fill-rule="nonzero"/></g></svg>