<svg xmlns="http://www.w3.org/2000/svg" xmlns:xlink="http://www.w3.org/1999/xlink" width="1366" zoomAndPan="magnify" viewBox="0 0 1024.5 576" height="768" preserveAspectRatio="xMidYMid meet" version="1.0"><defs><clipPath id="57c44d6879"><path d="M 399 123.769531 L 675.925781 123.769531 L 675.925781 364 L 399 364 Z M 399 123.769531 " clip-rule="nonzero"/></clipPath><clipPath id="54003f3f4d"><path d="M 348.335938 143 L 613 143 L 613 408.628906 L 348.335938 408.628906 Z M 348.335938 143 " clip-rule="nonzero"/></clipPath></defs><g clip-path="url(#57c44d6879)"><path fill="#7ed957" d="M 484.316406 274.847656 L 453.617188 230.839844 C 443.453125 216.269531 390.464844 253.230469 400.628906 267.800781 L 457.753906 349.691406 C 467.917969 364.265625 488.15625 367.871094 502.726562 357.707031 C 506.871094 354.816406 510.09375 351.09375 512.398438 346.9375 L 512.425781 346.949219 C 512.425781 346.949219 512.496094 346.789062 512.554688 346.660156 C 513.289062 345.304688 513.941406 343.910156 514.472656 342.472656 C 526.226562 317.175781 588.476562 189.371094 675.417969 123.714844 C 675.417969 123.714844 565.9375 126.480469 484.316406 274.847656 Z M 484.316406 274.847656 " fill-opacity="1" fill-rule="nonzero"/></g><g clip-path="url(#54003f3f4d)"><path fill="#7ed957" d="M 584.199219 243.652344 C 587.382812 253.859375 589.097656 264.707031 589.097656 275.949219 C 589.097656 335.914062 540.316406 384.691406 480.359375 384.691406 C 420.394531 384.691406 371.617188 335.914062 371.617188 275.949219 C 371.617188 215.988281 420.394531 167.210938 480.359375 167.210938 C 501.554688 167.210938 521.335938 173.328125 538.078125 183.859375 C 544.734375 178.15625 551.203125 172.960938 557.109375 168.402344 C 535.453125 152.902344 508.964844 143.738281 480.359375 143.738281 C 407.453125 143.738281 348.144531 203.046875 348.144531 275.949219 C 348.144531 348.851562 407.453125 408.164062 480.359375 408.164062 C 553.257812 408.164062 612.566406 348.851562 612.566406 275.949219 C 612.566406 255.277344 607.789062 235.703125 599.292969 218.261719 C 594.777344 225.191406 589.644531 233.65625 584.199219 243.652344 Z M 584.199219 243.652344 " fill-opacity="1" fill-rule="nonzero"/></g></svg>