<svg xmlns="http://www.w3.org/2000/svg" xmlns:xlink="http://www.w3.org/1999/xlink" width="1366" zoomAndPan="magnify" viewBox="0 0 1024.5 576" height="768" preserveAspectRatio="xMidYMid meet" version="1.0"><defs><clipPath id="828578ba4a"><path d="M 425 133.5625 L 707 133.5625 L 707 378 L 425 378 Z M 425 133.5625 " clip-rule="nonzero"/></clipPath><clipPath id="5a82af9920"><path d="M 373.484375 153 L 643 153 L 643 423.671875 L 373.484375 423.671875 Z M 373.484375 153 " clip-rule="nonzero"/></clipPath></defs><g clip-path="url(#828578ba4a)"><path fill="#c2a1f2" d="M 512.070312 287.535156 L 480.785156 242.679688 C 470.425781 227.832031 416.421875 265.5 426.78125 280.351562 L 485 363.808594 C 495.359375 378.660156 515.984375 382.335938 530.835938 371.976562 C 535.058594 369.03125 538.34375 365.238281 540.691406 361.003906 L 540.71875 361.015625 C 540.71875 361.015625 540.792969 360.851562 540.851562 360.71875 C 541.601562 359.339844 542.261719 357.917969 542.804688 356.453125 C 554.785156 330.671875 618.226562 200.417969 706.832031 133.503906 C 706.832031 133.503906 595.253906 136.324219 512.070312 287.535156 Z M 512.070312 287.535156 " fill-opacity="1" fill-rule="nonzero"/></g><g clip-path="url(#5a82af9920)"><path fill="#c2a1f2" d="M 613.867188 255.738281 C 617.109375 266.140625 618.859375 277.199219 618.859375 288.65625 C 618.859375 349.765625 569.144531 399.480469 508.039062 399.480469 C 446.925781 399.480469 397.210938 349.765625 397.210938 288.65625 C 397.210938 227.546875 446.925781 177.832031 508.039062 177.832031 C 529.636719 177.832031 549.800781 184.066406 566.859375 194.800781 C 573.644531 188.988281 580.238281 183.695312 586.257812 179.046875 C 564.1875 163.25 537.191406 153.914062 508.039062 153.914062 C 433.738281 153.914062 373.292969 214.359375 373.292969 288.65625 C 373.292969 362.953125 433.738281 423.398438 508.039062 423.398438 C 582.332031 423.398438 642.777344 362.953125 642.777344 288.65625 C 642.777344 267.589844 637.910156 247.640625 629.25 229.863281 C 624.648438 236.925781 619.417969 245.550781 613.867188 255.738281 Z M 613.867188 255.738281 " fill-opacity="1" fill-rule="nonzero"/></g></svg>