<svg xmlns="http://www.w3.org/2000/svg" xmlns:xlink="http://www.w3.org/1999/xlink" width="1366" zoomAndPan="magnify" viewBox="0 0 1024.5 576" height="768" preserveAspectRatio="xMidYMid meet" version="1.0"><defs><clipPath id="ae4e574e7d"><path d="M 407 144.945312 L 681.195312 144.945312 L 681.195312 383 L 407 383 Z M 407 144.945312 " clip-rule="nonzero"/></clipPath><clipPath id="35b929b586"><path d="M 356.601562 164 L 619 164 L 619 427.558594 L 356.601562 427.558594 Z M 356.601562 164 " clip-rule="nonzero"/></clipPath></defs><g clip-path="url(#ae4e574e7d)"><path fill="#169995" d="M 491.566406 294.902344 L 461.097656 251.222656 C 451.011719 236.757812 398.417969 273.445312 408.507812 287.90625 L 465.203125 369.1875 C 475.292969 383.648438 495.378906 387.230469 509.84375 377.140625 C 513.953125 374.273438 517.152344 370.578125 519.441406 366.453125 L 519.46875 366.464844 C 519.46875 366.464844 519.539062 366.304688 519.59375 366.175781 C 520.324219 364.832031 520.96875 363.449219 521.5 362.019531 C 533.164062 336.914062 594.949219 210.0625 681.238281 144.898438 C 681.238281 144.898438 572.578125 147.640625 491.566406 294.902344 Z M 491.566406 294.902344 " fill-opacity="1" fill-rule="nonzero"/></g><g clip-path="url(#35b929b586)"><path fill="#169995" d="M 590.707031 263.9375 C 593.863281 274.070312 595.566406 284.835938 595.566406 295.996094 C 595.566406 355.507812 547.148438 403.925781 487.640625 403.925781 C 428.125 403.925781 379.710938 355.507812 379.710938 295.996094 C 379.710938 236.484375 428.125 188.066406 487.640625 188.066406 C 508.675781 188.066406 528.3125 194.140625 544.925781 204.59375 C 551.535156 198.933594 557.953125 193.777344 563.816406 189.25 C 542.320312 173.867188 516.03125 164.773438 487.640625 164.773438 C 415.28125 164.773438 356.414062 223.640625 356.414062 295.996094 C 356.414062 368.351562 415.28125 427.21875 487.640625 427.21875 C 559.996094 427.21875 618.859375 368.351562 618.859375 295.996094 C 618.859375 275.476562 614.117188 256.050781 605.6875 238.738281 C 601.203125 245.617188 596.109375 254.015625 590.707031 263.9375 Z M 590.707031 263.9375 " fill-opacity="1" fill-rule="nonzero"/></g></svg>