<svg xmlns="http://www.w3.org/2000/svg" xmlns:xlink="http://www.w3.org/1999/xlink" width="1366" zoomAndPan="magnify" viewBox="0 0 1024.5 576" height="768" preserveAspectRatio="xMidYMid meet" version="1.0"><defs><clipPath id="5d3b895132"><path d="M 368 168 L 634 168 L 634 398.757812 L 368 398.757812 Z M 368 168 " clip-rule="nonzero"/></clipPath></defs><g clip-path="url(#5d3b895132)"><path fill="#ff3131" d="M 630.617188 370.855469 L 516.585938 177.15625 C 516.382812 176.816406 516.175781 176.484375 515.953125 176.160156 C 515.730469 175.835938 515.5 175.515625 515.257812 175.207031 C 515.015625 174.898438 514.765625 174.59375 514.503906 174.300781 C 514.242188 174.007812 513.972656 173.722656 513.691406 173.445312 C 513.414062 173.167969 513.125 172.902344 512.828125 172.644531 C 512.53125 172.386719 512.222656 172.136719 511.910156 171.902344 C 511.597656 171.664062 511.277344 171.433594 510.949219 171.21875 C 510.621094 171 510.285156 170.796875 509.945312 170.601562 C 509.601562 170.40625 509.257812 170.222656 508.902344 170.046875 C 508.550781 169.875 508.191406 169.714844 507.828125 169.566406 C 507.460938 169.414062 507.09375 169.277344 506.722656 169.152344 C 506.347656 169.027344 505.972656 168.914062 505.59375 168.8125 C 505.210938 168.710938 504.828125 168.625 504.441406 168.546875 C 504.058594 168.472656 503.667969 168.40625 503.277344 168.355469 C 502.890625 168.304688 502.496094 168.269531 502.105469 168.242188 C 501.714844 168.214844 501.320312 168.203125 500.925781 168.203125 C 500.535156 168.203125 500.140625 168.214844 499.746094 168.242188 C 499.355469 168.269531 498.964844 168.304688 498.574219 168.355469 C 498.183594 168.40625 497.796875 168.472656 497.410156 168.546875 C 497.023438 168.625 496.640625 168.710938 496.261719 168.8125 C 495.882812 168.914062 495.503906 169.027344 495.132812 169.152344 C 494.757812 169.277344 494.390625 169.414062 494.027344 169.566406 C 493.664062 169.714844 493.304688 169.875 492.949219 170.046875 C 492.597656 170.222656 492.25 170.40625 491.910156 170.601562 C 491.566406 170.796875 491.230469 171 490.902344 171.21875 C 490.574219 171.433594 490.253906 171.664062 489.941406 171.902344 C 489.628906 172.136719 489.324219 172.386719 489.027344 172.644531 C 488.730469 172.902344 488.441406 173.167969 488.160156 173.445312 C 487.878906 173.722656 487.609375 174.007812 487.347656 174.300781 C 487.085938 174.59375 486.835938 174.898438 486.59375 175.207031 C 486.351562 175.515625 486.121094 175.835938 485.898438 176.160156 C 485.679688 176.484375 485.46875 176.816406 485.269531 177.15625 L 371.242188 370.855469 C 370.425781 372.234375 369.808594 373.699219 369.382812 375.242188 C 368.953125 376.785156 368.734375 378.359375 368.726562 379.960938 C 368.714844 381.5625 368.910156 383.136719 369.316406 384.6875 C 369.722656 386.234375 370.324219 387.707031 371.117188 389.09375 C 371.914062 390.484375 372.875 391.75 374.003906 392.886719 C 375.132812 394.023438 376.390625 394.992188 377.773438 395.796875 C 379.160156 396.597656 380.625 397.210938 382.171875 397.625 C 383.71875 398.042969 385.292969 398.25 386.894531 398.25 L 614.964844 398.25 C 629.015625 398.25 637.75 382.96875 630.617188 370.855469 Z M 390.425781 378.757812 L 499.539062 196.347656 L 608.65625 378.757812 Z M 390.425781 378.757812 " fill-opacity="1" fill-rule="nonzero"/></g><path fill="#ff3131" d="M 486.136719 352.378906 C 486.136719 344.199219 491.820312 338.292969 499.539062 338.292969 C 507.714844 338.292969 512.945312 344.199219 512.945312 352.378906 C 512.945312 360.332031 507.714844 366.460938 499.539062 366.460938 C 491.589844 366.460938 486.136719 360.332031 486.136719 352.378906 Z M 491.890625 327.164062 L 486.351562 250.253906 C 486.074219 246.429688 492.101562 243.277344 499.542969 243.277344 C 506.980469 243.277344 513.019531 246.429688 512.742188 250.253906 L 507.199219 327.164062 C 507.007812 329.777344 503.648438 331.835938 499.539062 331.835938 C 495.425781 331.835938 492.066406 329.777344 491.882812 327.164062 Z M 491.890625 327.164062 " fill-opacity="1" fill-rule="nonzero"/></svg>