<svg xmlns="http://www.w3.org/2000/svg" xmlns:xlink="http://www.w3.org/1999/xlink" width="1366" zoomAndPan="magnify" viewBox="0 0 1024.5 576" height="768" preserveAspectRatio="xMidYMid meet" version="1.0"><defs><clipPath id="e0357c9a9f"><path d="M 430 116 L 681.550781 116 L 681.550781 350 L 430 350 Z M 430 116 " clip-rule="nonzero"/></clipPath><clipPath id="0d485421d6"><path d="M 342.714844 107.382812 L 681.550781 107.382812 L 681.550781 446 L 342.714844 446 Z M 342.714844 107.382812 " clip-rule="nonzero"/></clipPath></defs><g clip-path="url(#e0357c9a9f)"><path fill="#ff5757" d="M 517.664062 229.355469 C 515.421875 231.421875 513.761719 231.617188 511.320312 229.570312 C 500.992188 220.917969 489.632812 213.730469 477.839844 207.269531 C 466.230469 200.90625 454.21875 195.460938 442.359375 192.492188 C 433.144531 191.90625 428.199219 199.082031 431.460938 206.523438 C 432.84375 209.671875 435.335938 211.820312 437.769531 214.050781 C 453.152344 228.15625 468.472656 242.335938 483.960938 256.324219 C 486.933594 259.007812 486.980469 260.632812 484.359375 263.800781 C 467.09375 284.660156 450.253906 305.859375 435.273438 328.460938 C 432.167969 333.148438 431.871094 337.792969 435.84375 342.058594 C 439.691406 346.195312 444.476562 346.300781 449.816406 342.554688 C 452.355469 340.777344 454.773438 338.816406 457.167969 336.84375 C 475.667969 321.597656 494.222656 306.394531 512.585938 290.988281 C 515.585938 288.464844 517.265625 288.257812 520.109375 291.171875 C 531.082031 302.417969 542.253906 313.476562 553.488281 324.460938 C 561.179688 331.976562 568.957031 339.394531 576.929688 346.597656 C 580.863281 350.15625 585.699219 350.566406 590.085938 347.449219 C 594.234375 344.503906 595.328125 340.222656 593.503906 335.339844 C 592.925781 333.792969 592.488281 332.191406 591.851562 330.671875 C 581.488281 306.019531 566.625 284.253906 548.75 264.523438 C 545.46875 260.898438 545.628906 258.871094 549.007812 255.644531 C 556.636719 248.351562 564.070312 240.851562 571.300781 233.144531 C 596.503906 206.328125 621.300781 179.082031 649.242188 155.019531 C 658.476562 147.070312 668.15625 139.648438 677.617188 131.957031 C 681.675781 128.65625 681.96875 124.433594 679.359375 120.378906 C 676.75 116.324219 672.761719 115.726562 668.460938 117.929688 C 666.621094 118.871094 664.796875 119.851562 663.039062 120.949219 C 617.484375 149.21875 574.039062 180.386719 533.496094 215.5 C 528.199219 220.105469 522.828125 224.617188 517.664062 229.355469 Z M 517.664062 229.355469 " fill-opacity="1" fill-rule="nonzero"/></g><g clip-path="url(#0d485421d6)"><path fill="#ff5757" d="M 677.917969 242.347656 C 675.757812 231.175781 672.203125 220.371094 667.765625 209.886719 C 665.558594 204.671875 660.804688 202.515625 656.226562 204.355469 C 651.652344 206.195312 650.03125 210.832031 652.03125 216.320312 C 652.804688 218.460938 653.714844 220.550781 654.511719 222.679688 C 667.191406 256.441406 668.691406 290.894531 656.476562 324.65625 C 634.785156 384.589844 591.808594 420.773438 528.105469 427.5625 C 464.960938 434.292969 416.007812 408.128906 381.523438 355.015625 C 371.742188 339.949219 366.457031 323.011719 362.109375 305.757812 C 360.921875 294.59375 359.359375 283.457031 359.523438 272.191406 C 359.558594 270.128906 359.59375 268.0625 359.632812 265.996094 L 359.832031 262.328125 C 361.363281 259.652344 361.117188 256.707031 361.117188 253.800781 C 362.144531 251.769531 362.3125 249.601562 362.167969 247.390625 C 362.480469 247.082031 362.566406 246.722656 362.433594 246.304688 C 363.65625 243.074219 364.824219 239.824219 364.761719 236.289062 C 369.136719 223.375 373.9375 210.648438 381.109375 198.945312 C 421.175781 133.53125 497.542969 107.828125 569.445312 135.566406 C 575.96875 138.082031 580.175781 136.796875 582.46875 131.585938 C 584.535156 126.898438 582.015625 122.261719 575.664062 119.726562 C 545.503906 107.71875 514.335938 104.394531 482.417969 110.09375 C 438.503906 117.9375 403.175781 140.160156 376.324219 175.601562 C 361.8125 194.746094 351.644531 216.066406 347.066406 239.824219 C 345.445312 241.617188 345.996094 243.851562 345.816406 245.933594 C 343.734375 249.035156 344.992188 252.554688 344.558594 255.871094 C 342.890625 259.089844 343.472656 262.550781 343.488281 265.949219 C 343.230469 268.195312 342.773438 270.460938 342.746094 272.71875 C 342.234375 314.152344 354.515625 351.300781 380.769531 383.480469 C 431.59375 445.8125 515.355469 461.449219 582.148438 430.613281 C 655.101562 396.941406 693.226562 321.492188 677.917969 242.347656 Z M 677.917969 242.347656 " fill-opacity="1" fill-rule="nonzero"/></g></svg>