<svg xmlns="http://www.w3.org/2000/svg" xmlns:xlink="http://www.w3.org/1999/xlink" width="1366" zoomAndPan="magnify" viewBox="0 0 1024.5 576" height="768" preserveAspectRatio="xMidYMid meet" version="1.0"><defs><clipPath id="9d355e0df9"><path d="M 312.578125 89.734375 L 688.144531 89.734375 L 688.144531 465.300781 L 312.578125 465.300781 Z M 312.578125 89.734375 " clip-rule="nonzero"/></clipPath></defs><g clip-path="url(#9d355e0df9)"><path fill="#ffffff" d="M 500.304688 446.207031 C 456.867188 446.207031 417.214844 429.492188 387.277344 402.4375 C 395.039062 357.097656 434.503906 323.265625 481.003906 323.265625 L 519.421875 323.265625 C 565.972656 323.265625 605.480469 357.15625 613.175781 402.550781 C 613.179688 402.558594 613.179688 402.621094 613.183594 402.628906 C 583.261719 429.605469 543.667969 446.207031 500.304688 446.207031 Z M 500.304688 182.710938 C 530.671875 182.710938 555.378906 207.417969 555.378906 237.78125 C 555.378906 268.152344 530.671875 292.855469 500.304688 292.855469 C 469.9375 292.855469 445.230469 268.152344 445.230469 237.78125 C 445.230469 207.417969 469.9375 182.710938 500.304688 182.710938 Z M 500.304688 89.734375 C 396.792969 89.734375 312.578125 173.949219 312.578125 277.460938 C 312.578125 380.972656 396.792969 465.183594 500.304688 465.183594 C 603.816406 465.183594 688.027344 380.972656 688.027344 277.460938 C 688.027344 173.949219 603.816406 89.734375 500.304688 89.734375 " fill-opacity="1" fill-rule="nonzero"/></g></svg>